<?xml version="1.0" encoding="UTF-8" standalone="no"?>
<svg
   version="1.1"
   width="304"
   height="82.666664"
   viewBox="0 0 304 82.666664"
   xmlns="http://www.w3.org/2000/svg">
  <g>
    <!-- Détourage blanc pour la forme verte claire -->
    <path
      d="m 29.017578,27.554688 -4.148437,14.5 c -2.28175,7.974694 -4.145225,14.741019 -4.140625,15.037109 0.0046,0.29603 1.270942,0.446734 2.814453,0.333984 l 2.80664,-0.205078 0.931641,-3.833984 0.931641,-3.832031 h 5.173828 5.173828 l 1.123047,4 1.121094,4 H 43.75 c 2.067714,-10e-7 2.856502,-0.248785 2.650391,-0.833985 -0.522888,-1.484256 -8.330079,-28.523256 -8.330079,-28.849609 0,-0.1739 -2.038019,-0.316407 -4.527343,-0.316406 z m 60.097656,0 c -10.029856,-10e-7 -15.182652,4.819191 -15.318359,14.332031 -0.135346,9.48743 3.004457,13.987304 10.939453,15.68164 3.191496,0.6815 4.637562,0.722336 8.240234,0.228516 l 3.09375,-0.423828 v -6.910156 -6.908203 h -2.667968 -2.666016 v 4.666015 4.666016 h -2.289062 c -6.125365,0 -8.544788,-3.163136 -8.242188,-10.78125 0.30234,-7.611404 4.099175,-10.643653 12.013672,-9.59375 l 3.183594,0.421875 v -2.285156 c 0,-2.757546 -0.683102,-3.093751 -6.28711,-3.09375 z m 12.287106,0 v 15 15 h 9.66797 9.66602 v -2.310547 -2.310547 l -6.83399,-0.189453 -6.83203,-0.189453 -0.20117,-3.833985 -0.19922,-3.833984 h 5.69922 5.70117 v -2.666016 -2.666015 h -5.66797 -5.66601 v -3.333985 -3.333984 h 6.66601 6.66797 v -2.666016 -2.666015 h -9.33398 z m 23.33399,0 v 15 15 h 2.64844 2.64843 l 0.18555,-9.833985 0.18359,-9.833984 5.85352,9.833984 5.85352,9.833985 h 2.98046 2.98047 v -15 -15 h -2.65039 -2.64844 l -0.18359,10.166015 -0.18555,10.166016 -5.98242,-10.166016 -5.98242,-10.166015 h -2.85156 z m 26.66601,0 v 2.666015 2.666016 h 4.33399 4.33398 v 12.333984 12.333985 h 3 3 V 45.220703 32.886719 h 4.33203 4.33399 v -2.666016 -2.666015 h -11.66602 z m -93.400387,0.02734 c -2.435706,-0.05237 -4.925961,0.07073 -6.515625,0.388672 l -2.083984,0.416016 V 42.9707 57.554685 h 3 3 v -5.667969 c 0,-5.613285 0.01582,-5.666016 1.68164,-5.666016 1.376083,0 2.352428,1.028954 5.375,5.666016 l 3.695313,5.667969 h 2.957031 c 3.644179,-10e-7 3.685075,0.383801 -0.654297,-6.097657 L 64.845703,46.0625 67.457031,43.578125 c 5.005315,-4.761435 3.133476,-13.557238 -3.263672,-15.333984 -1.37411,-0.381665 -3.755664,-0.609736 -6.191406,-0.66211 z"
      fill="none"
      stroke="#fff"
      stroke-width="4"
      stroke-linejoin="round"
      fill-rule="evenodd"
    />
    <path
      d="m 29.017578,27.554688 -4.148437,14.5 c -2.28175,7.974694 -4.145225,14.741019 -4.140625,15.037109 0.0046,0.29603 1.270942,0.446734 2.814453,0.333984 l 2.80664,-0.205078 0.931641,-3.833984 0.931641,-3.832031 h 5.173828 5.173828 l 1.123047,4 1.121094,4 H 43.75 c 2.067714,-10e-7 2.856502,-0.248785 2.650391,-0.833985 -0.522888,-1.484256 -8.330079,-28.523256 -8.330079,-28.849609 0,-0.1739 -2.038019,-0.316407 -4.527343,-0.316406 z m 60.097656,0 c -10.029856,-10e-7 -15.182652,4.819191 -15.318359,14.332031 -0.135346,9.48743 3.004457,13.987304 10.939453,15.68164 3.191496,0.6815 4.637562,0.722336 8.240234,0.228516 l 3.09375,-0.423828 v -6.910156 -6.908203 h -2.667968 -2.666016 v 4.666015 4.666016 h -2.289062 c -6.125365,0 -8.544788,-3.163136 -8.242188,-10.78125 0.30234,-7.611404 4.099175,-10.643653 12.013672,-9.59375 l 3.183594,0.421875 v -2.285156 c 0,-2.757546 -0.683102,-3.093751 -6.28711,-3.09375 z m 12.287106,0 v 15 15 h 9.66797 9.66602 v -2.310547 -2.310547 l -6.83399,-0.189453 -6.83203,-0.189453 -0.20117,-3.833985 -0.19922,-3.833984 h 5.69922 5.70117 v -2.666016 -2.666015 h -5.66797 -5.66601 v -3.333985 -3.333984 h 6.66601 6.66797 v -2.666016 -2.666015 h -9.33398 z m 23.33399,0 v 15 15 h 2.64844 2.64843 l 0.18555,-9.833985 0.18359,-9.833984 5.85352,9.833984 5.85352,9.833985 h 2.98046 2.98047 v -15 -15 h -2.65039 -2.64844 l -0.18359,10.166015 -0.18555,10.166016 -5.98242,-10.166016 -5.98242,-10.166015 h -2.85156 z m 26.66601,0 v 2.666015 2.666016 h 4.33399 4.33398 v 12.333984 12.333985 h 3 3 V 45.220703 32.886719 h 4.33203 4.33399 v -2.666016 -2.666015 h -11.66602 z m -93.400387,0.02734 c -2.435706,-0.05237 -4.925961,0.07073 -6.515625,0.388672 l -2.083984,0.416016 V 42.9707 57.554685 h 3 3 v -5.667969 c 0,-5.613285 0.01582,-5.666016 1.68164,-5.666016 1.376083,0 2.352428,1.028954 5.375,5.666016 l 3.695313,5.667969 h 2.957031 c 3.644179,-10e-7 3.685075,0.383801 -0.654297,-6.097657 L 64.845703,46.0625 67.457031,43.578125 c 5.005315,-4.761435 3.133476,-13.557238 -3.263672,-15.333984 -1.37411,-0.381665 -3.755664,-0.609736 -6.191406,-0.66211 z"
      fill="#59ad71"
      stroke="none"
      fill-rule="evenodd"
    />
    <!-- Détourage blanc pour la forme verte foncée -->
    <path
      d="m 232.6364,27.763313 v 14.666016 14.666015 h 2.66601 2.66797 v -9.332031 c 0,-5.133194 0.225,-9.319954 0.5,-9.302734 0.275,0.01722 2.94772,4.141707 5.93946,9.166016 l 5.43945,9.136718 3.06055,0.203125 3.06054,0.203125 V 42.466438 27.763313 h -2.64843 -2.65039 l -0.1836,9.796875 -0.18555,9.798828 -5.93164,-9.798828 -5.93359,-9.796875 h -2.90039 z m 28.66601,0 v 14.666016 14.666015 h 3 3 v -5.999999 c 0,-5.896056 0.0282,-6 1.60743,-6 1.29856,0 2.3331,1.150926 5.39257,6 l 3.78711,5.999999 h 3.27735 3.27734 l -3.78125,-5.832031 c -6.79782,-10.488553 -7.12404,-7.346219 2.29688,-22 0.95078,-1.478863 0.92066,-1.5 -2.14063,-1.5 h -3.10547 l -3.80468,5.990235 c -5.36938,8.454956 -6.80665,8.458144 -6.80665,0.0098 v -6 h -3 z m -73.74023,0.002 c -2.10355,0.0057 -4.12311,0.136708 -5.50977,0.414063 l -2.08203,0.416015 v 14.206985 14.205078 l 1.83203,0.277343 c 10.43795,1.581231 18.78327,-1.15437 19.78321,-6.484374 0.55149,-2.939635 -1.00559,-6.787772 -3.13867,-7.759766 l -1.59375,-0.726562 1.89257,-1.890625 c 3.56022,-3.560124 2.23734,-9.749824 -2.50781,-11.732423 -1.14401,-0.477973 -3.7666,-0.789479 -6.56445,-0.890625 -0.69946,-0.02529 -1.41015,-0.03704 -2.11133,-0.03516 z m 24.24805,0.330078 -4.24414,14.333985 c -2.33468,7.882767 -4.24891,14.408283 -4.25391,14.499953 -0.005,0.09167 1.29293,0.166015 2.88281,0.166015 h 2.89063 l 1.11133,-4 1.11132,-3.999999 h 4.99024 4.98828 l 1.17383,3.999999 c 1.17518,3.998958 1.1767,3.999067 4.00976,4 1.55833,5.08e-4 2.8223,-0.225 2.8086,-0.5 -0.0137,-0.274973 -1.90887,-6.800207 -4.21094,-14.499999 l -4.18555,-14.000001 h -4.53711 z m -21.76172,3.855469 c 4.25735,0.226738 7.01649,3.954294 4.20703,6.763672 -0.69507,0.695053 -2.26487,1.048828 -4.66602,1.048828 h -3.61914 v -3.636718 c 0,-3.577122 0.0356,-3.643793 2.17383,-4.044923 0.65752,-0.12335 1.29607,-0.16325 1.9043,-0.130859 z m 26.38867,0.6875 c 0.43605,0.09945 0.88876,1.880704 1.85742,5.457032 0.59586,2.199944 1.23655,4.526319 1.42383,5.167968 0.29578,1.013339 -0.1531,1.166016 -3.41602,1.166016 -3.51347,0 -3.72652,-0.09177 -3.31054,-1.402344 0.24459,-0.770615 1.00443,-3.360552 1.68945,-5.755859 0.90083,-3.149954 1.31981,-4.732267 1.75586,-4.632813 z m -30.4668,11.63086 3.94336,0.285156 c 5.93236,0.429098 8.54817,4.72052 4.57422,7.503906 -0.88664,0.62101 -2.89462,1.037109 -5,1.037109 h -3.51758 v -4.412156 z"
      fill="none"
      stroke="#fff"
      stroke-width="4"
      stroke-linejoin="round"
      fill-rule="evenodd"
    />
    <path
      d="m 232.6364,27.763313 v 14.666016 14.666015 h 2.66601 2.66797 v -9.332031 c 0,-5.133194 0.225,-9.319954 0.5,-9.302734 0.275,0.01722 2.94772,4.141707 5.93946,9.166016 l 5.43945,9.136718 3.06055,0.203125 3.06054,0.203125 V 42.466438 27.763313 h -2.64843 -2.65039 l -0.1836,9.796875 -0.18555,9.798828 -5.93164,-9.798828 -5.93359,-9.796875 h -2.90039 z m 28.66601,0 v 14.666016 14.666015 h 3 3 v -5.999999 c 0,-5.896056 0.0282,-6 1.60743,-6 1.29856,0 2.3331,1.150926 5.39257,6 l 3.78711,5.999999 h 3.27735 3.27734 l -3.78125,-5.832031 c -6.79782,-10.488553 -7.12404,-7.346219 2.29688,-22 0.95078,-1.478863 0.92066,-1.5 -2.14063,-1.5 h -3.10547 l -3.80468,5.990235 c -5.36938,8.454956 -6.80665,8.458144 -6.80665,0.0098 v -6 h -3 z m -73.74023,0.002 c -2.10355,0.0057 -4.12311,0.136708 -5.50977,0.414063 l -2.08203,0.416015 v 14.206985 14.205078 l 1.83203,0.277343 c 10.43795,1.581231 18.78327,-1.15437 19.78321,-6.484374 0.55149,-2.939635 -1.00559,-6.787772 -3.13867,-7.759766 l -1.59375,-0.726562 1.89257,-1.890625 c 3.56022,-3.560124 2.23734,-9.749824 -2.50781,-11.732423 -1.14401,-0.477973 -3.7666,-0.789479 -6.56445,-0.890625 -0.69946,-0.02529 -1.41015,-0.03704 -2.11133,-0.03516 z m 24.24805,0.330078 -4.24414,14.333985 c -2.33468,7.882767 -4.24891,14.408283 -4.25391,14.499953 -0.005,0.09167 1.29293,0.166015 2.88281,0.166015 h 2.89063 l 1.11133,-4 1.11132,-3.999999 h 4.99024 4.98828 l 1.17383,3.999999 c 1.17518,3.998958 1.1767,3.999067 4.00976,4 1.55833,5.08e-4 2.8223,-0.225 2.8086,-0.5 -0.0137,-0.274973 -1.90887,-6.800207 -4.21094,-14.499999 l -4.18555,-14.000001 h -4.53711 z m -21.76172,3.855469 c 4.25735,0.226738 7.01649,3.954294 4.20703,6.763672 -0.69507,0.695053 -2.26487,1.048828 -4.66602,1.048828 h -3.61914 v -3.636718 c 0,-3.577122 0.0356,-3.643793 2.17383,-4.044923 0.65752,-0.12335 1.29607,-0.16325 1.9043,-0.130859 z m 26.38867,0.6875 c 0.43605,0.09945 0.88876,1.880704 1.85742,5.457032 0.59586,2.199944 1.23655,4.526319 1.42383,5.167968 0.29578,1.013339 -0.1531,1.166016 -3.41602,1.166016 -3.51347,0 -3.72652,-0.09177 -3.31054,-1.402344 0.24459,-0.770615 1.00443,-3.360552 1.68945,-5.755859 0.90083,-3.149954 1.31981,-4.732267 1.75586,-4.632813 z m -30.4668,11.63086 3.94336,0.285156 c 5.93236,0.429098 8.54817,4.72052 4.57422,7.503906 -0.88664,0.62101 -2.89462,1.037109 -5,1.037109 h -3.51758 v -4.412156 z"
      fill="#244b30"
      stroke="none"
      fill-rule="evenodd"
    />
  </g>
</svg>
