<?xml version="1.0" encoding="UTF-8" standalone="no"?>
<!-- Created with Inkscape (http://www.inkscape.org/) -->

<svg
   version="1.1"
   id="svg2"
   width="304"
   height="82.666664"
   viewBox="0 0 304 82.666664"
   sodipodi:docname="argentBankLogo_trans.png"
   inkscape:version="1.2.2 (b0a8486541, 2022-12-01)"
   inkscape:export-filename="argentBankLogo_trans.svg"
   inkscape:export-xdpi="96"
   inkscape:export-ydpi="96"
   inkscape:dataloss="true"
   xmlns:inkscape="http://www.inkscape.org/namespaces/inkscape"
   xmlns:sodipodi="http://sodipodi.sourceforge.net/DTD/sodipodi-0.dtd"
   xmlns="http://www.w3.org/2000/svg"
   xmlns:svg="http://www.w3.org/2000/svg">
  <defs
     id="defs6" />
  <sodipodi:namedview
     id="namedview4"
     pagecolor="#ffffff"
     bordercolor="#000000"
     borderopacity="0.25"
     inkscape:showpageshadow="2"
     inkscape:pageopacity="0.0"
     inkscape:pagecheckerboard="0"
     inkscape:deskcolor="#d1d1d1"
     showgrid="false"
     inkscape:zoom="2.0186759"
     inkscape:cx="209.04792"
     inkscape:cy="23.034902"
     inkscape:window-width="1280"
     inkscape:window-height="1336"
     inkscape:window-x="1280"
     inkscape:window-y="32"
     inkscape:window-maximized="1"
     inkscape:current-layer="g8" />
  <g
     inkscape:groupmode="layer"
     inkscape:label="Image"
     id="g8">
    <path
       id="path260"
       mask="none"
       style="fill:#59ad71;fill-opacity:1;stroke-width:0.666667"
       d="m 29.017578,27.554688 -4.148437,14.5 c -2.28175,7.974694 -4.145225,14.741019 -4.140625,15.037109 0.0046,0.29603 1.270942,0.446734 2.814453,0.333984 l 2.80664,-0.205078 0.931641,-3.833984 0.931641,-3.832031 h 5.173828 5.173828 l 1.123047,4 1.121094,4 H 43.75 c 2.067714,-10e-7 2.856502,-0.248785 2.650391,-0.833985 -0.522888,-1.484256 -8.330079,-28.523256 -8.330079,-28.849609 0,-0.1739 -2.038019,-0.316407 -4.527343,-0.316406 z m 60.097656,0 c -10.029856,-10e-7 -15.182652,4.819191 -15.318359,14.332031 -0.135346,9.48743 3.004457,13.987304 10.939453,15.68164 3.191496,0.6815 4.637562,0.722336 8.240234,0.228516 l 3.09375,-0.423828 v -6.910156 -6.908203 h -2.667968 -2.666016 v 4.666015 4.666016 h -2.289062 c -6.125365,0 -8.544788,-3.163136 -8.242188,-10.78125 0.30234,-7.611404 4.099175,-10.643653 12.013672,-9.59375 l 3.183594,0.421875 v -2.285156 c 0,-2.757546 -0.683102,-3.093751 -6.28711,-3.09375 z m 12.287106,0 v 15 15 h 9.66797 9.66602 v -2.310547 -2.310547 l -6.83399,-0.189453 -6.83203,-0.189453 -0.20117,-3.833985 -0.19922,-3.833984 h 5.69922 5.70117 v -2.666016 -2.666015 h -5.66797 -5.66601 v -3.333985 -3.333984 h 6.66601 6.66797 v -2.666016 -2.666015 h -9.33398 z m 23.33399,0 v 15 15 h 2.64844 2.64843 l 0.18555,-9.833985 0.18359,-9.833984 5.85352,9.833984 5.85352,9.833985 h 2.98046 2.98047 v -15 -15 h -2.65039 -2.64844 l -0.18359,10.166015 -0.18555,10.166016 -5.98242,-10.166016 -5.98242,-10.166015 h -2.85156 z m 26.66601,0 v 2.666015 2.666016 h 4.33399 4.33398 v 12.333984 12.333985 h 3 3 V 45.220703 32.886719 h 4.33203 4.33399 v -2.666016 -2.666015 h -11.66602 z m -93.400387,0.02734 c -2.435706,-0.05237 -4.925961,0.07073 -6.515625,0.388672 l -2.083984,0.416016 V 42.9707 57.554685 h 3 3 v -5.667969 c 0,-5.613285 0.01582,-5.666016 1.68164,-5.666016 1.376083,0 2.352428,1.028954 5.375,5.666016 l 3.695313,5.667969 h 2.957031 c 3.644179,-10e-7 3.685075,0.383801 -0.654297,-6.097657 L 64.845703,46.0625 67.457031,43.578125 c 5.005315,-4.761435 3.133476,-13.557238 -3.263672,-15.333984 -1.37411,-0.381665 -3.755664,-0.609736 -6.191406,-0.66211 z m 205.087887,1.802735 c 1.08125,2.697579 1.70123,5.549861 2.29493,8.386718 0.47544,2.524136 0.95781,5.049644 1.31445,7.59375 0.0951,0.597598 0.13689,1.192097 0.14844,1.785157 0.10154,-0.277661 0.19236,-0.558131 0.26367,-0.845703 0.22318,-0.882335 0.36048,-1.788316 0.68555,-2.642579 0.27283,-0.71704 0.64888,-1.220514 1.05468,-1.539062 -0.0315,-0.149303 -0.0575,-0.303871 -0.0605,-0.476563 -0.2686,-0.360884 -0.50179,-0.80811 -0.61914,-1.441406 -0.0949,-0.51202 -0.2407,-1.010893 -0.38868,-1.509766 -0.36472,-1.196039 -0.7297,-2.393191 -1.11132,-3.583984 -0.3795,-1.258874 -0.8173,-2.496404 -1.25977,-3.734375 -0.23331,-0.660972 -0.45663,-1.327255 -0.69727,-1.986328 -0.54166,-0.002 -1.08333,-0.0071 -1.625,-0.0059 z m 15.62891,0.421875 c -0.28686,0.546687 -0.55906,1.100763 -0.87891,1.628906 -0.63734,1.041272 -1.31512,2.057201 -2.05468,3.029297 -0.42332,0.558053 -0.82501,1.129287 -1.19141,1.722656 0.3871,0.28478 0.7484,0.746781 1.0332,1.398438 0.0635,-0.05181 0.12807,-0.102264 0.19141,-0.154297 0.97995,-0.811789 1.8559,-1.734991 2.54883,-2.802735 0.45497,-0.925679 0.8606,-1.873809 1.26562,-2.822265 0.005,-0.494945 0.0504,-0.989571 0.0371,-1.484375 -0.0165,-0.149853 -0.0385,-0.299524 -0.0566,-0.449219 -0.29814,-0.02224 -0.59651,-0.04252 -0.89453,-0.06641 z m -24.16602,0.294921 c -0.99021,0.09719 -1.9813,0.190882 -2.9707,0.296876 -0.28807,0.02952 -0.57704,0.05093 -0.86523,0.08008 l -0.12891,6.724609 -0.0742,3.867187 c 1.07726,1.329483 1.89446,2.80325 2.48242,4.410157 0.31305,1.090471 0.17764,0.557814 0.41016,1.599609 0.17143,0.768073 0.10653,1.379894 -0.0742,1.859375 0.0678,0.111084 0.13796,0.219863 0.20117,0.333985 1.68024,3.033306 -1.26309,4.403999 -3.16406,1.503906 -0.80311,-1.225208 -1.87622,-2.269876 -2.85156,-3.359375 -1.18446,-1.285914 -2.28345,-2.641165 -3.31446,-4.046875 -1.32527,-0.609997 -2.54815,-1.384121 -3.47656,-2.574219 -0.058,-0.06954 -0.11099,-0.141055 -0.16797,-0.210937 -0.0355,0.230467 -0.0429,0.466546 -0.0879,0.695312 l 3.21289,5.273438 c 3.50861,5.75766 5.18235,8.511088 6.42579,9.814453 1.26546,-0.03618 2.53186,-0.08122 3.79687,-0.142579 0.0931,-0.0037 0.18618,-0.0095 0.2793,-0.01367 0.0344,-0.381257 0.0614,-0.763262 0.11718,-1.140625 0.0866,-1.016219 0.19674,-2.02993 0.27344,-3.046875 0.0516,-1.034235 0.13431,-2.066981 0.25391,-3.095703 0.12163,-1.141493 0.22839,-2.286614 0.30859,-3.431641 0.0441,-1.313134 0.0696,-2.625544 0.0391,-3.939453 -0.0136,-1.279192 -0.0282,-2.558286 -0.0976,-3.835938 -0.0756,-1.275326 -0.20426,-2.546212 -0.32031,-3.818359 -0.0909,-1.266195 -0.17044,-2.533706 -0.20704,-3.802735 z m -60.81054,0.08203 c 0.35466,0.472903 0.59762,0.988481 0.96679,1.640625 0.43117,0.913722 0.74069,1.867044 1.00782,2.833984 0.17596,0.0785 0.3961,0.158631 0.52734,0.232422 0.31355,0.176292 0.60074,0.394716 0.89063,0.609375 -0.29546,-1.714336 -0.40099,-3.44697 -0.43555,-5.183594 -0.98681,-0.03121 -1.97127,-0.0901 -2.95703,-0.132812 z m 17.49023,0.433594 c -0.006,0.330713 -0.0132,0.661624 -0.0176,0.992187 -0.0485,2.851848 0.0131,5.704661 0.0273,8.556641 0.0609,-0.139857 0.11976,-0.280522 0.18164,-0.419922 0.59726,-1.447988 1.16971,-2.905176 1.75586,-4.357422 -0.94367,-0.5733 -1.12874,-2.13393 0.5,-3.382813 0.38168,-0.292664 0.78791,-0.546823 1.20312,-0.785156 0.0617,-0.160929 0.1265,-0.320431 0.18555,-0.482422 0.009,-0.02362 0.0185,-0.04521 0.0273,-0.06836 -1.28778,-0.01634 -2.57557,-0.0326 -3.86328,-0.05273 z m 24.32422,0.347656 c 0.20436,0.626858 0.40874,1.254046 0.60547,1.882812 0.55791,1.673997 0.95853,3.380153 1.24609,5.105469 0.16133,-0.532421 0.42698,-0.918833 0.73828,-1.167969 -0.3312,-0.737985 -0.60197,-1.510231 -0.79882,-2.330078 -0.26283,-1.14931 -0.45268,-2.305751 -0.54883,-3.470703 -0.41407,-0.0073 -0.82814,-0.01215 -1.24219,-0.01953 z m -53.83203,0.796875 c -0.0158,0.56894 -0.0385,1.13745 -0.0449,1.707031 -0.0157,1.94118 0.11631,3.881237 0.19531,5.820312 0.007,1.858331 0.15942,3.702624 0.38867,5.544922 0.31352,1.963098 0.43819,3.946031 0.52539,5.929688 0.0325,0.620854 0.003,1.24221 0.008,1.863281 0.20043,-0.0078 0.40149,-0.01129 0.60351,0 0.0248,-3.4e-5 0.0495,-0.0019 0.0742,-0.002 -0.0205,-0.105645 -0.0423,-0.217136 -0.0645,-0.320312 -0.28961,-1.785938 -0.47701,-3.581826 -0.50391,-5.392579 -0.0258,-1.733577 0.83512,-2.65267 1.70898,-2.705078 0.11521,-0.0069 0.2301,0.0021 0.34375,0.02539 0.37968,-0.308975 0.9147,-0.557211 1.63868,-0.669922 0.72747,-0.113253 1.45596,-0.224698 2.1914,-0.273438 1.91322,-0.121544 3.83167,-0.0898 5.74414,-0.234374 0.0809,3.7e-5 0.16298,0.0017 0.24414,0.002 -0.14432,-0.313498 -0.28648,-0.628655 -0.42382,-0.945313 -1.42853,0.329731 -2.87304,0.260607 -4.33594,0.03906 -0.73969,-0.182076 -1.4757,-0.212907 -2.23047,-0.191407 -0.46356,0.0037 -0.92562,0.04266 -1.38672,0.08594 -3.44904,0.323723 -3.77276,-3.17033 -0.33008,-3.486328 v -2.671875 -1.898438 c -1.01144,-0.455075 -1.24674,-1.380461 -0.79687,-2.125 -0.79869,0.03125 -1.59783,0.0603 -2.39453,0.06445 -0.048,2.5e-4 -0.0885,-0.04284 -0.13672,-0.04687 -0.36251,-0.03108 -0.69954,-0.07112 -1.01758,-0.11914 z M 33.451172,32.220703 c 0.467676,0 3.285156,9.931552 3.285156,11.580078 0,1.125363 -6.644534,1.707871 -6.683594,0.585938 -0.04117,-1.182483 3.026934,-12.166016 3.398438,-12.166016 z m 21.951172,0 h 3.628906 c 5.262481,0 7.956443,5.088625 4.398438,8.308594 -1.38056,1.249433 -6.679796,2.172 -7.527344,1.310547 -0.275,-0.27951 -0.5,-2.559014 -0.5,-5.064453 z m 162.669926,0.462891 c -0.004,0.01036 -0.008,0.02089 -0.0117,0.03125 0.0472,0.06659 0.0925,0.134712 0.14648,0.195312 -0.0233,-0.05317 -0.0449,-0.10704 -0.0684,-0.160156 -0.0166,-0.01557 -0.0401,-0.03936 -0.0664,-0.06641 z m 0.3164,0.648437 c -0.20322,0.105197 -0.48325,0.247666 -0.72656,0.373047 -0.12624,0.304367 -0.25292,0.60842 -0.38086,0.91211 0.29528,0.940629 0.6258,2.070894 1.12109,3.871093 l 1.34961,4.904297 c 0.545,-0.02496 1.08831,-0.06233 1.63086,-0.111328 0.30487,-0.152369 0.60281,-0.231158 0.87696,-0.236328 0.1568,-0.003 0.30665,0.01675 0.44531,0.05664 0.22169,-0.03583 0.44539,-0.05329 0.66601,-0.09961 0.31816,-0.06679 0.60875,-0.09672 0.8711,-0.0957 0.0437,1.7e-4 0.0849,0.004 0.12695,0.0059 -0.31456,-0.826589 -0.66802,-1.636289 -1.11328,-2.398437 -0.83742,0.401699 -2.07704,-0.09646 -2.72461,-1.822266 -0.67594,-1.801369 -1.37965,-3.59303 -2.14258,-5.359375 z m 43.01367,2.597657 v 0.236328 c 0.0168,-0.0023 0.0339,-0.0023 0.0508,-0.0039 -0.0175,-0.07741 -0.033,-0.155082 -0.0508,-0.232421 z m -63.11914,4.074218 c -0.19129,0.294125 -0.43547,0.531973 -0.70312,0.742188 0.0729,0.167809 0.14741,0.335114 0.22265,0.501953 l 0.61329,-0.546875 c -0.0245,-0.235909 -0.0916,-0.464188 -0.13282,-0.697266 z m 75.93946,3.087891 c -1.30049,0.897589 -2.3559,0.705793 -2.83789,0.05469 0.0471,0.441059 -0.0213,0.973213 -0.25,1.582032 -0.15897,0.423093 -0.26958,0.859851 -0.36915,1.298828 0.98497,1.101809 2.21616,2.79936 3.80665,5.208984 l 2.41406,3.658203 c 1.08856,-0.05269 2.17822,-0.07814 3.26758,-0.111328 -0.005,-0.05275 -0.0106,-0.105394 -0.0156,-0.158203 -0.0718,-1.224462 -0.073,-2.449724 -0.0859,-3.675781 -0.10549,-0.14499 -0.2121,-0.289963 -0.32226,-0.431641 -0.5918,-0.795133 -1.19217,-1.584626 -1.85352,-2.324219 -0.73427,-0.807069 -1.53147,-1.562502 -2.17383,-2.449218 -0.60619,-0.83605 -1.12605,-1.725424 -1.58007,-2.652344 z m -48.91407,2.611328 c -0.39811,0.344863 -0.95895,0.633571 -1.6914,0.792969 -0.25315,0.05509 -0.51259,0.06087 -0.76758,0.101562 -0.0606,0.09125 -0.12469,0.187219 -0.12891,0.199219 -0.01,0.02939 0.073,-0.07475 0.082,-0.04492 0.0491,0.169949 -0.0209,1.24821 -0.0527,1.787109 0.29853,0.09343 0.59703,0.188274 0.89648,0.277344 0.19318,0.05332 0.3869,0.106854 0.58008,0.160156 1.29558,0.357593 1.94705,1.083306 2.06641,1.785157 -0.117,-1.122919 -0.24437,-2.245538 -0.45313,-3.355469 -0.13783,-0.578974 -0.34963,-1.136562 -0.53125,-1.703125 z m -27.04492,1.132813 c 0.12022,0.422882 0.15306,0.942587 0.0547,1.55664 l -0.043,0.273438 c -0.0214,0.114817 -0.0546,0.227308 -0.0781,0.341796 0.36224,-0.107588 0.72245,-0.22134 1.08203,-0.33789 -0.0545,-0.406691 -0.10201,-0.81433 -0.16211,-1.220703 -0.0209,-0.156655 -0.0387,-0.313722 -0.0566,-0.470703 -0.26034,-0.06976 -0.53147,-0.09369 -0.79688,-0.142578 z m 21.02539,0.08008 c -0.26644,0.01017 -0.5329,0.02579 -0.79883,0.03711 -0.67848,0.02801 -1.35658,0.062 -2.03515,0.08594 0.4474,0.06394 0.89626,0.116261 1.34375,0.179688 0.49371,0.07733 0.96926,0.228413 1.45312,0.345703 0.007,-0.21688 0.0199,-0.432832 0.0371,-0.648437 z m 7.01953,3.972656 c 0.0842,1.059895 -1.0473,2.008457 -3.01562,1.46289 -0.0852,-0.02362 -0.17055,-0.04694 -0.25586,-0.07031 0.0918,0.490157 0.20098,0.97728 0.33008,1.458984 0.0274,-0.06036 0.0176,-0.16593 0.082,-0.18164 0.18848,-0.04596 1.18255,0.3717 1.1914,0.375 0.6575,0.233309 1.32207,0.436898 1.99024,0.632812 -0.0153,-0.149044 -0.0297,-0.298274 -0.0449,-0.447265 -0.0935,-0.961586 -0.14897,-1.926093 -0.23047,-2.888672 -0.0113,-0.114463 -0.0351,-0.227364 -0.0469,-0.341797 z m -26.70898,1.351562 c -1.15766,0.359969 -2.32946,0.671525 -3.50586,0.964844 -0.59808,0.63656 -1.28108,1.195557 -2.04102,1.666016 -0.30437,0.171344 -0.56659,0.321395 -0.82617,0.464844 0.365,0.04642 0.73099,0.08747 1.09571,0.128906 1.15976,0.09711 2.32298,0.122767 3.48632,0.126953 0.65394,-0.390875 1.2579,-0.828403 1.77344,-1.326172 0.0121,-0.674985 0.0234,-1.350102 0.0176,-2.025391 z m 65.95508,1.226563 c -0.2668,0.386736 -0.60208,0.639837 -1.10352,0.644531 -0.0256,0.452912 -0.0519,0.906221 -0.0801,1.359375 -0.004,0.08203 -0.006,0.164122 -0.01,0.246094 0.45963,-0.02211 0.91951,-0.03998 1.3789,-0.06641 0.10229,-0.0061 0.20441,-0.01465 0.30665,-0.02148 -0.18664,-0.715523 -0.36653,-1.433624 -0.49219,-2.162109 z m -30.22266,2.154297 c -0.0302,0.05582 -0.0703,0.105695 -0.0996,0.162109 -0.01,0.02742 -0.0162,0.05629 -0.0254,0.08398 -0.002,0.04812 0.001,0.09644 -0.002,0.144531 0.0592,0.0025 0.11848,0.0053 0.17773,0.0078 -0.0196,-0.132583 -0.0339,-0.265679 -0.0508,-0.398437 z" />
    <rect
       style="fill:#000000;fill-opacity:0;stroke-width:0.971803"
       id="rect4776"
       width="112.20782"
       height="46.940544"
       x="177.24695"
       y="21.429232" />
    <rect
       style="fill:#000000;fill-opacity:0"
       id="rect4780"
       width="118.02143"
       height="60.325768"
       x="176.83363"
       y="13.21752" />
    <rect
       style="fill:#000000;fill-opacity:0"
       id="rect4782"
       width="116.38245"
       height="55.770939"
       x="176.93549"
       y="13.72182" />
    <rect
       style="fill:#000000;fill-opacity:0"
       id="rect4788"
       width="112.47959"
       height="52.80534"
       x="177.46339"
       y="16.486324"
       mask="none" />
    <rect
       style="fill:#000000;fill-opacity:0"
       id="rect4790"
       width="115.64367"
       height="52.205086"
       x="176.877"
       y="15.633067" />
    <rect
       style="fill:none;fill-opacity:1"
       id="rect5574"
       width="172.73654"
       height="67.692146"
       x="25.184748"
       y="63.992893" />
    <rect
       style="fill:none;fill-opacity:1"
       id="rect5614"
       width="166.17928"
       height="56.9249"
       x="11.445668"
       y="13.835388" />
    <rect
       style="fill:none;fill-opacity:1"
       id="rect5616"
       width="160.55586"
       height="57.354675"
       x="15.938366"
       y="13.953638" />
    <path
       id="path204"
       mask="none"
       style="fill:#244b30;fill-opacity:1;stroke-width:0.666667"
       d="m 232.6364,27.763313 v 14.666016 14.666015 h 2.66601 2.66797 v -9.332031 c 0,-5.133194 0.225,-9.319954 0.5,-9.302734 0.275,0.01722 2.94772,4.141707 5.93946,9.166016 l 5.43945,9.136718 3.06055,0.203125 3.06054,0.203125 V 42.466438 27.763313 h -2.64843 -2.65039 l -0.1836,9.796875 -0.18555,9.798828 -5.93164,-9.798828 -5.93359,-9.796875 h -2.90039 z m 28.66601,0 v 14.666016 14.666015 h 3 3 v -5.999999 c 0,-5.896056 0.0282,-6 1.60743,-6 1.29856,0 2.3331,1.150926 5.39257,6 l 3.78711,5.999999 h 3.27735 3.27734 l -3.78125,-5.832031 c -6.79782,-10.488553 -7.12404,-7.346219 2.29688,-22 0.95078,-1.478863 0.92066,-1.5 -2.14063,-1.5 h -3.10547 l -3.80468,5.990235 c -5.36938,8.454956 -6.80665,8.458144 -6.80665,0.0098 v -6 h -3 z m -73.74023,0.002 c -2.10355,0.0057 -4.12311,0.136708 -5.50977,0.414063 l -2.08203,0.416015 v 14.206985 14.205078 l 1.83203,0.277343 c 10.43795,1.581231 18.78327,-1.15437 19.78321,-6.484374 0.55149,-2.939635 -1.00559,-6.787772 -3.13867,-7.759766 l -1.59375,-0.726562 1.89257,-1.890625 c 3.56022,-3.560124 2.23734,-9.749824 -2.50781,-11.732423 -1.14401,-0.477973 -3.7666,-0.789479 -6.56445,-0.890625 -0.69946,-0.02529 -1.41015,-0.03704 -2.11133,-0.03516 z m 24.24805,0.330078 -4.24414,14.333985 c -2.33468,7.882767 -4.24891,14.408283 -4.25391,14.499953 -0.005,0.09167 1.29293,0.166015 2.88281,0.166015 h 2.89063 l 1.11133,-4 1.11132,-3.999999 h 4.99024 4.98828 l 1.17383,3.999999 c 1.17518,3.998958 1.1767,3.999067 4.00976,4 1.55833,5.08e-4 2.8223,-0.225 2.8086,-0.5 -0.0137,-0.274973 -1.90887,-6.800207 -4.21094,-14.499999 l -4.18555,-14.000001 h -4.53711 z m -21.76172,3.855469 c 4.25735,0.226738 7.01649,3.954294 4.20703,6.763672 -0.69507,0.695053 -2.26487,1.048828 -4.66602,1.048828 h -3.61914 v -3.636718 c 0,-3.577122 0.0356,-3.643793 2.17383,-4.044923 0.65752,-0.12335 1.29607,-0.16325 1.9043,-0.130859 z m 26.38867,0.6875 c 0.43605,0.09945 0.88876,1.880704 1.85742,5.457032 0.59586,2.199944 1.23655,4.526319 1.42383,5.167968 0.29578,1.013339 -0.1531,1.166016 -3.41602,1.166016 -3.51347,0 -3.72652,-0.09177 -3.31054,-1.402344 0.24459,-0.770615 1.00443,-3.360552 1.68945,-5.755859 0.90083,-3.149954 1.31981,-4.732267 1.75586,-4.632813 z m -30.4668,11.63086 3.94336,0.285156 c 5.93236,0.429098 8.54817,4.72052 4.57422,7.503906 -0.88664,0.62101 -2.89462,1.037109 -5,1.037109 h -3.51758 v -4.412156 z" />
    <rect
       style="fill:none;fill-opacity:1"
       id="rect5618"
       width="169.00882"
       height="68.797585"
       x="8.6026592"
       y="5.9816546" />
    <rect
       style="fill:none;fill-opacity:1"
       id="rect5620"
       width="120.87734"
       height="49.720806"
       x="12.086242"
       y="14.387878" />
    <rect
       style="fill:none;fill-opacity:1"
       id="rect5622"
       width="35.653515"
       height="7.6796613"
       x="130.56754"
       y="64.576279" />
    <rect
       style="fill:none;fill-opacity:1"
       id="rect5624"
       width="0.8328616"
       height="11.293168"
       x="6.827045"
       y="6.3215041" />
    <rect
       style="fill:none;fill-opacity:1"
       id="rect5626"
       width="161.53607"
       height="59.98378"
       x="16.704096"
       y="13.78551" />
    <rect
       style="fill:none;fill-opacity:1"
       id="rect5628"
       width="170.65666"
       height="55.979301"
       x="6.7752209"
       y="12.659791" />
    <rect
       style="fill:none;fill-opacity:1"
       id="rect5630"
       width="158.08331"
       height="49.406826"
       x="19.207298"
       y="18.092676" />
  </g>
</svg>
